<?xml version="1.0" standalone="no"?>
<!DOCTYPE svg PUBLIC "-//W3C//DTD SVG 1.1//EN" "http://www.w3.org/Graphics/SVG/1.1/DTD/svg11.dtd" >
<svg xmlns="http://www.w3.org/2000/svg">
<metadata>
This is a custom SVG webfont generated by Font Squirrel.
Copyright   : 2009 copyright c by Jean Francois Porchez Typofonderie All rights reserved Distributed exclusively by AWFP under licence with Typofonderie Any distribution to a third party is prohibited Names are trademarks in some cases
Designer    : Jean Francois Porchez Typofonderie
Foundry     : Jean Francois Porchez Typofonderie
Foundry URL : httpwwwtypofonderiecom
</metadata>
<defs>
<font id="AWConquerorCarvedOne" horiz-adv-x="1024" >
<font-face units-per-em="2048" ascent="1559" descent="-489" />
<missing-glyph horiz-adv-x="512" />
<glyph unicode=" "  horiz-adv-x="512" />
<glyph unicode="&#x09;" horiz-adv-x="512" />
<glyph unicode="&#xa0;" horiz-adv-x="512" />
<glyph unicode="!" horiz-adv-x="512" d="M125 0v262h254v-262h-254zM125 289v1091h254v-1091h-254z" />
<glyph unicode="&#x22;" horiz-adv-x="839" d="M248 1380h123l-17 -434h-90zM573 1380h125l-16 -434h-90z" />
<glyph unicode="#" horiz-adv-x="1105" d="M59 332v211h150l41 293h-191v211h222l49 333h233l-47 -333h170l49 333h234l-47 -333h125v-211h-158l-41 -293h199v-211h-232l-47 -332h-233l47 332h-172l-48 -332h-233l47 332h-117zM442 543h172l41 293h-172z" />
<glyph unicode="$" horiz-adv-x="1040" d="M57 186l183 174q127 -145 286 -145q82 0 130.5 39t48.5 92q0 39 -17.5 73t-56.5 66.5t-70 53t-88 53.5q-76 43 -124 76.5t-103.5 88t-82 124t-26.5 155.5q0 131 68.5 228.5t204.5 130.5v127h252v-129q162 -41 313 -207l-178 -191q-111 158 -252 158q-162 0 -162 -106 q0 -31 15.5 -60t53 -59.5t65.5 -49l85 -53.5q70 -41 102.5 -62.5t90 -67.5t85 -88t50 -106.5t22.5 -138.5q0 -150 -76.5 -246t-213.5 -126v-135h-252v127q-195 26 -353 204z" />
<glyph unicode="%" horiz-adv-x="1671" d="M125 1030q0 156 90 266.5t252 110.5t252 -110.5t90 -266.5t-90 -267.5t-252 -111.5t-252 111.5t-90 267.5zM340 0l762 1380h229l-762 -1380h-229zM365 1024q0 -117 102 -117t102 117q0 51 -26.5 85t-75.5 34q-51 0 -76.5 -34t-25.5 -85zM864 352.5q0 155.5 90 266 t252 110.5t252 -110.5t90 -266t-90 -267.5t-252 -112t-252 112t-90 267.5zM1104 348q0 -117 102.5 -117t102.5 117q0 51 -27 85t-76 34q-51 0 -76.5 -34t-25.5 -85z" />
<glyph unicode="&#x26;" horiz-adv-x="1650" d="M197 406q0 113 55 204.5t149 134.5q-152 113 -151 279q0 186 126 284.5t333 98.5q137 0 239.5 -50t202.5 -155l-170 -178q-61 68 -123.5 98.5t-150.5 30.5q-203 0 -203 -125q0 -72 66.5 -114t185.5 -42h110v-260h-108q-152 0 -229.5 -47t-77.5 -127q0 -76 66.5 -126 t182.5 -50h363v610h459v-260h-205v-612h-617q-225 0 -364 99.5t-139 306.5z" />
<glyph unicode="'" horiz-adv-x="512" d="M248 1380h123l-17 -434h-90z" />
<glyph unicode="(" horiz-adv-x="628" d="M127 690q0 494 330 903h164q-342 -432 -342 -903t342 -903h-164q-147 186 -238.5 400t-91.5 503z" />
<glyph unicode=")" horiz-adv-x="628" d="M10 -213q342 432 342 903t-342 903h164q147 -186 238.5 -400t91.5 -503q0 -494 -330 -903h-164z" />
<glyph unicode="*" horiz-adv-x="878" d="M25 1087l47 144l288 -94v313h152v-313l289 94l47 -144l-291 -90l195 -260l-125 -88l-191 262l-190 -262l-125 88l194 260z" />
<glyph unicode="+" d="M86 461v112h414v416h112v-416h416v-112h-416v-414h-112v414h-414z" />
<glyph unicode="," horiz-adv-x="512" d="M129 262h254v-252l-90 -289h-164v541z" />
<glyph unicode="-" horiz-adv-x="512" d="M41 571v267h430v-267h-430z" />
<glyph unicode="." horiz-adv-x="512" d="M129 0v262h254v-262h-254z" />
<glyph unicode="/" horiz-adv-x="688" d="M-29 0l516 1380h230l-516 -1380h-230z" />
<glyph unicode="0" horiz-adv-x="1183" d="M86 694.5q0 329.5 128 521t378 191.5t378 -191.5t128 -521t-128 -525.5t-378 -196q-248 0 -377 196t-129 525.5zM342 690q0 -455 250 -454q100 0 157.5 59t76 152.5t18.5 242.5q0 113 -10.5 190.5t-37 142t-77.5 96.5t-127 32q-135 0 -192.5 -119t-57.5 -342z" />
<glyph unicode="1" horiz-adv-x="722" d="M231 0v1348l252 84v-1432h-252z" />
<glyph unicode="2" horiz-adv-x="1136" d="M72 0v213l233 217l194 176q65 59 129 129t88.5 123t24.5 113q0 88 -61.5 133t-140.5 45q-84 0 -144.5 -35t-122.5 -129l-196 139q98 154 209.5 218.5t259.5 64.5q199 0 324.5 -111.5t125.5 -320.5q0 -127 -82 -250t-241 -272l-201 -189h594v-264h-993z" />
<glyph unicode="3" horiz-adv-x="1134" d="M61 193l183 180q117 -154 299 -154q250 0 250 187q0 96 -74 137t-234 41h-190v264h192q119 0 185.5 46t66.5 128q0 57 -56 94t-146 37q-88 0 -150.5 -30.5t-124.5 -98.5l-170 178q100 104 202.5 154.5t240.5 50.5q207 0 332.5 -98.5t125.5 -284.5q0 -182 -159 -301 q98 -45 155.5 -127t57.5 -190q0 -209 -141.5 -321t-362.5 -112q-267 1 -482 220z" />
<glyph unicode="4" horiz-adv-x="1185" d="M59 334v217l619 829h270v-782h172v-264h-172v-334h-252v334h-637zM391 598h305v410z" />
<glyph unicode="5" horiz-adv-x="1077" d="M25 203l182 180q102 -164 303 -164q117 0 182.5 56.5t65.5 154.5q0 197 -299 197q-201 0 -326 -27v780h819v-262h-567v-237h100q106 0 196.5 -22.5t166.5 -73t119 -138.5t43 -209q0 -203 -132.5 -334t-367.5 -131q-150 0 -264.5 54.5t-220.5 175.5z" />
<glyph unicode="6" horiz-adv-x="1230" d="M86 629q0 147 25.5 273t85 246t178.5 189.5t284 69.5q137 0 241 -53.5t212 -165.5l-180 -178q-123 145 -287 145q-123 0 -201.5 -86t-99.5 -231q127 57 283 57q219 0 348 -124t129 -302q0 -217 -141.5 -356.5t-362.5 -139.5q-135 0 -236.5 53.5t-161 146.5t-88 208 t-28.5 248zM338 569q0 -154 69.5 -249t196.5 -95q113 0 179.5 56.5t66.5 158.5q0 94 -66.5 155.5t-183.5 61.5q-158 0 -262 -88z" />
<glyph unicode="7" horiz-adv-x="1030" d="M57 1118v262h899v-202l-219 -377q-100 -172 -140 -306.5t-40 -293.5v-201h-250v199q0 193 56.5 367.5t205.5 404.5l97 147h-609z" />
<glyph unicode="8" horiz-adv-x="1224" d="M102 401q0 211 197 328q-154 111 -154 277q0 180 136.5 290.5t330.5 110.5q197 0 333 -110.5t136 -290.5q0 -188 -155 -277q197 -115 196 -328q0 -199 -138 -313.5t-371.5 -114.5t-372 114.5t-138.5 313.5zM352 403q0 -84 72 -131t186.5 -47t186 47t71.5 131 q0 88 -68.5 138.5t-187.5 50.5q-121 0 -190.5 -50.5t-69.5 -138.5zM395 1001q0 -68 64.5 -111.5t154.5 -43.5q92 0 158 43t66 110q0 70 -61.5 112t-162 42t-160 -41t-59.5 -111z" />
<glyph unicode="9" horiz-adv-x="1230" d="M119 193l180 178q123 -145 287 -146q123 0 201.5 86t99.5 232q-61 -27 -142 -43q-70 -14 -141 -15q-219 0 -348 124t-129 302q0 217 141.5 356.5t362.5 139.5q135 0 236.5 -53.5t160.5 -146.5t88 -207.5t29 -247.5q0 -147 -25.5 -273.5t-85 -246t-178.5 -189.5t-285 -70 q-137 0 -240 53.5t-212 166.5zM381 940q0 -94 66.5 -155.5t183.5 -61.5q158 0 262 88v16q0 141 -70.5 234.5t-195.5 93.5q-113 0 -179.5 -56.5t-66.5 -158.5z" />
<glyph unicode=":" horiz-adv-x="512" d="M129 0v262h254v-262h-254zM129 690v262h254v-262h-254z" />
<glyph unicode=";" horiz-adv-x="512" d="M129 262h254v-252l-90 -289h-164v541zM129 690v262h254v-262h-254z" />
<glyph unicode="&#x3c;" d="M20 -205v533h697v-287h-185v102h-327v-163h799v-185h-984zM20 389v553h185v-184h799v-185h-799v-184h-185zM20 1004v430h185v-246h307v205h184v-205h308v-184h-984z" />
<glyph unicode="=" d="M86 256v113h942v-113h-942zM86 666v112h942v-112h-942z" />
<glyph unicode="&#x3e;" d="M20 -205v533h697v-287h-185v102h-327v-163h799v-185h-984zM20 389v553h185v-184h799v-185h-799v-184h-185zM20 1004v430h185v-246h307v205h184v-205h308v-184h-984z" />
<glyph unicode="?" horiz-adv-x="899" d="M49 1196q94 106 188.5 158.5t208.5 52.5q160 0 272.5 -96.5t112.5 -282.5q0 -145 -76.5 -246.5t-209.5 -191.5v-301h-254v432q164 106 229.5 168.5t65.5 132.5q0 131 -150 131q-113 0 -221 -135zM291 0v262h254v-262h-254z" />
<glyph unicode="@" horiz-adv-x="1605" d="M119 657q0 178 58.5 323.5t155.5 238t217 141.5t245 49q133 0 253.5 -41t220 -120t159 -212t59.5 -303q0 -164 -72 -269.5t-178 -105.5h-70v478q0 154 -105.5 231.5t-258.5 77.5q-143 0 -262 -76l57 -115q86 61 195 62q113 0 179 -50.5t66 -154.5v-78q-121 23 -282 23 q-143 0 -235.5 -65.5t-92.5 -201.5q0 -127 92 -191.5t219 -64.5h574v-264h-512q-317 0 -499.5 169t-182.5 519zM557 485q0 143 221 144q111 0 260 -23v-246h-282q-98 0 -148.5 26.5t-50.5 98.5z" />
<glyph unicode="A" horiz-adv-x="1382" d="M29 0l512 1380h301l512 -1380h-277l-125 338h-522l-125 -338h-276zM524 598h332l-164 442z" />
<glyph unicode="B" horiz-adv-x="1396" d="M193 0v1380h569q201 0 334 -97t133 -300q0 -172 -139 -281q100 -35 152 -116.5t52 -182.5q0 -209 -148.5 -306t-391.5 -97h-561zM446 264h293q154 0 220.5 33t66.5 117q0 141 -295 141h-285v-291zM446 821h297q217 0 218 146q0 70 -55.5 109.5t-160.5 39.5h-299v-295z " />
<glyph unicode="C" horiz-adv-x="1396" d="M102 690q0 188 75 349t225.5 264.5t347.5 103.5q352 0 571 -299l-195 -182q-84 123 -171 175t-201 52q-170 0 -275.5 -133t-105.5 -328q0 -207 113.5 -334t273.5 -127q215 0 366 215l195 -182q-109 -147 -245 -217t-326 -70q-295 0 -471.5 211t-176.5 502z" />
<glyph unicode="D" horiz-adv-x="1519" d="M193 0v1380h512q346 0 529 -195.5t183 -492.5q0 -301 -186.5 -496.5t-525.5 -195.5h-512zM446 266h248q219 0 336 118t117 306q0 193 -122 308.5t-331 115.5h-248v-848z" />
<glyph unicode="E" horiz-adv-x="1282" d="M193 0v1380h919v-264h-666v-237h605v-267h-605v-350h707v-262h-960z" />
<glyph unicode="F" horiz-adv-x="1251" d="M193 0v1380h956v-262h-703v-352h641v-264h-641v-502h-253z" />
<glyph unicode="G" horiz-adv-x="1421" d="M98 690q0 188 74 349t224.5 264.5t353.5 103.5q352 0 571 -299l-195 -182q-84 123 -171 175t-201 52q-174 0 -279.5 -138t-105.5 -323q0 -207 126 -336t316 -129q129 0 227 33v209h-356v268h610v-657q-215 -106 -491 -107q-307 0 -505 192.5t-198 524.5z" />
<glyph unicode="H" horiz-adv-x="1595" d="M193 0v1380h253v-559h703v559h254v-1380h-254v557h-703v-557h-253z" />
<glyph unicode="I" horiz-adv-x="636" d="M193 0v1380h253v-1380h-253z" />
<glyph unicode="J" horiz-adv-x="1048" d="M14 256l197 186q102 -215 281 -215q86 0 133 55.5t47 155.5v942h254v-944q0 -225 -110.5 -344t-332.5 -119q-272 0 -469 283z" />
<glyph unicode="K" horiz-adv-x="1400" d="M193 0v1380h253v-575l545 575h355l-662 -688l659 -692h-362l-535 580v-580h-253z" />
<glyph unicode="L" horiz-adv-x="1241" d="M193 0v1380h253v-1118h693v-262h-946z" />
<glyph unicode="M" horiz-adv-x="1734" d="M193 0v1380h317l358 -653l355 653h319v-1380h-254v930l-309 -543h-217l-316 557v-944h-253z" />
<glyph unicode="N" horiz-adv-x="1597" d="M193 0v1380h331l627 -987v987h254v-1380h-332l-627 975v-975h-253z" />
<glyph unicode="O" horiz-adv-x="1536" d="M109 692q0 293 186 504t481 211q293 0 479.5 -212t186.5 -507q0 -293 -186.5 -504t-479.5 -211t-480 212t-187 507zM379 692q0 -195 107.5 -330t289.5 -135q184 0 289.5 133.5t105.5 328t-106.5 329.5t-288.5 135t-289.5 -134t-107.5 -327z" />
<glyph unicode="P" horiz-adv-x="1312" d="M193 0v1380h507q233 0 378 -130t145 -332q0 -207 -140.5 -339.5t-382.5 -132.5h-254v-446h-253zM446 713h248q131 0 196.5 53t65.5 147q0 88 -68.5 144.5t-191.5 56.5h-250v-401z" />
<glyph unicode="Q" horiz-adv-x="1536" d="M109 692q0 293 186 504t481 211q293 0 479.5 -212t186.5 -507q0 -211 -102.5 -388t-272.5 -259l305 -401h-330l-239 333h-27q-293 0 -480 212t-187 507zM379 692q0 -195 107.5 -330t289.5 -135q184 0 289.5 133.5t105.5 328t-106.5 329.5t-288.5 135t-289.5 -134 t-107.5 -327z" />
<glyph unicode="R" horiz-adv-x="1409" d="M193 0v1380h550q217 0 352.5 -112.5t135.5 -309.5q0 -156 -86 -261t-209 -148l381 -549h-316l-339 502h-216v-502h-253zM446 768h281q233 0 234 188q0 160 -222 160h-293v-348z" />
<glyph unicode="S" horiz-adv-x="1345" d="M107 233l190 183q121 -188 395 -189q115 0 193 39t78 117q0 61 -57.5 102t-142.5 59.5t-185.5 50.5t-185.5 71t-142 127t-57 213q0 168 132 284.5t373 116.5q346 0 531 -262l-189 -184q-111 193 -338 192q-113 0 -176 -37t-63 -102q0 -53 42 -89t110.5 -55.5t150.5 -38 t164 -49t150.5 -74.5t110.5 -126t42 -195q0 -188 -156.5 -301t-388.5 -113q-188 0 -330 58.5t-251 201.5z" />
<glyph unicode="T" horiz-adv-x="1290" d="M41 1116v264h1208v-264h-477v-1116h-254v1116h-477z" />
<glyph unicode="U" horiz-adv-x="1595" d="M193 508v872h253v-874q0 -137 97.5 -208t253.5 -71q162 0 257 70t95 209v874h254v-872q0 -256 -166 -395.5t-440 -139.5q-268 0 -436 140.5t-168 394.5z" />
<glyph unicode="V" horiz-adv-x="1382" d="M29 1380h276l387 -1040l385 1040h277l-512 -1380h-301z" />
<glyph unicode="W" horiz-adv-x="1925" d="M61 1380h269l235 -950l242 950h317l246 -952l227 952h265l-324 -1380h-326l-251 975l-256 -975h-314z" />
<glyph unicode="X" horiz-adv-x="1396" d="M41 0l487 696l-483 684h324l333 -475l336 475h316l-482 -686l486 -694h-322l-340 483l-338 -483h-317z" />
<glyph unicode="Y" horiz-adv-x="1314" d="M-2 1380h324l340 -487l329 487h328l-535 -751v-629h-254v631z" />
<glyph unicode="Z" horiz-adv-x="1269" d="M102 0v207l691 911h-656v262h1014v-209l-692 -909h729v-262h-1086z" />
<glyph unicode="[" horiz-adv-x="628" d="M141 -213v1806h437v-151h-285v-1503h285v-152h-437z" />
<glyph unicode="\" horiz-adv-x="688" d="M-29 1380h230l516 -1380h-230z" />
<glyph unicode="]" horiz-adv-x="628" d="M49 -61h285v1503h-285v151h436v-1806h-436v152z" />
<glyph unicode="^" d="M20 -205v533h697v-287h-185v102h-327v-163h799v-185h-984zM20 389v553h185v-184h799v-185h-799v-184h-185zM20 1004v430h185v-246h307v205h184v-205h308v-184h-984z" />
<glyph unicode="_" d="M0 -283h1024v-266h-1024v266z" />
<glyph unicode="`" d="M201 1540h295l143 -190h-297z" />
<glyph unicode="&#x300;" d="M201 1540h295l143 -190h-297z" />
<glyph unicode="&#x2cb;" d="M201 1540h295l143 -190h-297z" />
<glyph unicode="a" horiz-adv-x="1382" d="M29 0l512 1380h301l512 -1380h-277l-125 338h-522l-125 -338h-276zM524 598h332l-164 442z" />
<glyph unicode="b" horiz-adv-x="1396" d="M193 0v1380h569q201 0 334 -97t133 -300q0 -172 -139 -281q100 -35 152 -116.5t52 -182.5q0 -209 -148.5 -306t-391.5 -97h-561zM446 264h293q154 0 220.5 32t66.5 112q0 147 -295 147h-285v-291zM446 821h297q217 0 218 146q0 70 -55.5 109.5t-160.5 39.5h-299v-295z " />
<glyph unicode="c" horiz-adv-x="1396" d="M102 690q0 188 75 349t225.5 264.5t347.5 103.5q352 0 571 -299l-195 -182q-84 123 -171 175t-201 52q-168 0 -274.5 -139.5t-106.5 -321.5q0 -184 105.5 -324.5t275.5 -140.5q115 0 199.5 52.5t172.5 164.5l195 -186q-113 -154 -234.5 -219.5t-332.5 -65.5 q-303 0 -477.5 202t-174.5 515z" />
<glyph unicode="d" horiz-adv-x="1519" d="M193 0v1380h512q346 0 529 -195.5t183 -492.5q0 -301 -186.5 -496.5t-525.5 -195.5h-512zM446 266h248q219 0 336 118t117 306q0 193 -122 308.5t-331 115.5h-248v-848z" />
<glyph unicode="e" horiz-adv-x="1282" d="M193 0v1380h919v-264h-666v-237h605v-267h-605v-350h707v-262h-960z" />
<glyph unicode="f" horiz-adv-x="1251" d="M193 0v1380h956v-262h-703v-352h641v-264h-641v-502h-253z" />
<glyph unicode="g" horiz-adv-x="1421" d="M98 690q0 188 74 349t224.5 264.5t353.5 103.5q352 0 571 -299l-195 -182q-84 123 -171 175t-201 52q-174 0 -279.5 -138t-105.5 -323q0 -207 126 -336t316 -129q129 0 227 33v209h-356v268h610v-657q-215 -106 -491 -107q-307 0 -505 192.5t-198 524.5z" />
<glyph unicode="h" horiz-adv-x="1595" d="M193 0v1380h253v-559h703v559h254v-1380h-254v557h-703v-557h-253z" />
<glyph unicode="i" horiz-adv-x="636" d="M193 0v1380h253v-1380h-253z" />
<glyph unicode="j" horiz-adv-x="1048" d="M14 256l197 186q102 -215 281 -215q86 0 133 55.5t47 155.5v942h254v-944q0 -225 -110.5 -344t-332.5 -119q-150 0 -254 62.5t-215 220.5z" />
<glyph unicode="k" horiz-adv-x="1400" d="M193 0v1380h253v-575l545 575h355l-662 -688l659 -692h-362l-535 580v-580h-253z" />
<glyph unicode="l" horiz-adv-x="1241" d="M193 0v1380h253v-1118h693v-262h-946z" />
<glyph unicode="m" horiz-adv-x="1734" d="M193 0v1380h317l358 -653l355 653h319v-1380h-254v930l-309 -543h-217l-316 557v-944h-253z" />
<glyph unicode="n" horiz-adv-x="1597" d="M193 0v1380h331l627 -987v987h254v-1380h-332l-627 975v-975h-253z" />
<glyph unicode="o" horiz-adv-x="1536" d="M109 692q0 293 186 504t481 211q293 0 479.5 -212t186.5 -507q0 -293 -186.5 -504t-479.5 -211t-480 212t-187 507zM379 692q0 -195 107.5 -330t289.5 -135q184 0 289.5 133.5t105.5 328t-106.5 329.5t-288.5 135t-289.5 -134t-107.5 -327z" />
<glyph unicode="p" horiz-adv-x="1312" d="M193 0v1380h507q233 0 378 -130t145 -332q0 -207 -140.5 -339.5t-382.5 -132.5h-254v-446h-253zM446 713h248q131 0 196.5 53t65.5 147q0 88 -68.5 144.5t-191.5 56.5h-250v-401z" />
<glyph unicode="q" horiz-adv-x="1536" d="M109 692q0 293 186 504t481 211q293 0 479.5 -212t186.5 -507q0 -211 -102.5 -388t-272.5 -259l305 -401h-330l-239 333h-27q-293 0 -480 212t-187 507zM379 692q0 -195 107.5 -330t289.5 -135q184 0 289.5 133.5t105.5 328t-106.5 329.5t-288.5 135t-289.5 -134 t-107.5 -327z" />
<glyph unicode="r" horiz-adv-x="1409" d="M193 0v1380h550q217 0 352.5 -112.5t135.5 -309.5q0 -156 -86 -261t-209 -148l381 -549h-316l-339 502h-216v-502h-253zM446 768h281q233 0 234 188q0 160 -222 160h-293v-348z" />
<glyph unicode="s" horiz-adv-x="1345" d="M107 233l190 183q121 -188 395 -189q115 0 193 39t78 117q0 61 -57.5 102t-142.5 59.5t-185.5 50.5t-185.5 71t-142 127t-57 213q0 168 132 284.5t373 116.5q346 0 531 -262l-189 -184q-111 193 -338 192q-113 0 -176 -37t-63 -102q0 -53 42 -89t110.5 -55.5t150.5 -38 t164 -49t150.5 -74.5t110.5 -126t42 -195q0 -188 -156.5 -301t-388.5 -113q-188 0 -330 58.5t-251 201.5z" />
<glyph unicode="t" horiz-adv-x="1290" d="M41 1116v264h1208v-264h-477v-1116h-254v1116h-477z" />
<glyph unicode="u" horiz-adv-x="1595" d="M193 508v872h253v-874q0 -137 97.5 -208t253.5 -71q162 0 257 70t95 209v874h254v-872q0 -256 -166 -395.5t-440 -139.5q-268 0 -436 140.5t-168 394.5z" />
<glyph unicode="v" horiz-adv-x="1382" d="M29 1380h276l387 -1040l385 1040h277l-512 -1380h-301z" />
<glyph unicode="w" horiz-adv-x="1925" d="M61 1380h269l235 -950l242 950h317l246 -952l227 952h265l-324 -1380h-326l-251 975l-256 -975h-314z" />
<glyph unicode="x" horiz-adv-x="1396" d="M41 0l487 696l-483 684h324l333 -475l336 475h316l-482 -686l486 -694h-322l-340 483l-338 -483h-317z" />
<glyph unicode="y" horiz-adv-x="1314" d="M-2 1380h324l340 -487l329 487h328l-535 -751v-629h-254v631z" />
<glyph unicode="z" horiz-adv-x="1269" d="M102 0v207l691 911h-656v262h1014v-209l-692 -909h729v-262h-1086z" />
<glyph unicode="{" d="M20 -205v533h697v-287h-185v102h-327v-163h799v-185h-984zM20 389v553h185v-184h799v-185h-799v-184h-185zM20 1004v430h185v-246h307v205h184v-205h308v-184h-984z" />
<glyph unicode="|" horiz-adv-x="512" d="M129 -389v1991h254v-1991h-254z" />
<glyph unicode="}" d="M20 -205v533h697v-287h-185v102h-327v-163h799v-185h-984zM20 389v553h185v-184h799v-185h-799v-184h-185zM20 1004v430h185v-246h307v205h184v-205h308v-184h-984z" />
<glyph unicode="~" d="M20 -205v533h697v-287h-185v102h-327v-163h799v-185h-984zM20 389v553h185v-184h799v-185h-799v-184h-185zM20 1004v430h185v-246h307v205h184v-205h308v-184h-984z" />
<glyph unicode="&#xa1;" horiz-adv-x="512" d="M125 0v1092h254v-1092h-254zM125 1118v262h254v-262h-254z" />
<glyph unicode="&#xa2;" d="M20 -205v533h697v-287h-185v102h-327v-163h799v-185h-984zM20 389v553h185v-184h799v-185h-799v-184h-185zM20 1004v430h185v-246h307v205h184v-205h308v-184h-984z" />
<glyph unicode="&#xa3;" horiz-adv-x="1062" d="M104 0v264h125v293h-125v270h125v191q0 74 16.5 138.5t54.5 123.5t109.5 93t172.5 34q115 0 203.5 -49t175.5 -158l-183 -168q-49 74 -84 97.5t-88 23.5q-129 0 -129 -135v-191h359v-270h-359v-293h465v-264h-838z" />
<glyph unicode="&#xa4;" d="M20 -205v533h697v-287h-185v102h-327v-163h799v-185h-984zM20 389v553h185v-184h799v-185h-799v-184h-185zM20 1004v430h185v-246h307v205h184v-205h308v-184h-984z" />
<glyph unicode="&#xa5;" d="M20 -205v533h697v-287h-185v102h-327v-163h799v-185h-984zM20 389v553h185v-184h799v-185h-799v-184h-185zM20 1004v430h185v-246h307v205h184v-205h308v-184h-984z" />
<glyph unicode="&#xa6;" d="M20 -205v533h697v-287h-185v102h-327v-163h799v-185h-984zM20 389v553h185v-184h799v-185h-799v-184h-185zM20 1004v430h185v-246h307v205h184v-205h308v-184h-984z" />
<glyph unicode="&#xa7;" d="M20 -205v533h697v-287h-185v102h-327v-163h799v-185h-984zM20 389v553h185v-184h799v-185h-799v-184h-185zM20 1004v430h185v-246h307v205h184v-205h308v-184h-984z" />
<glyph unicode="&#xa8;" d="M135 1350v190h254v-190h-254zM524 1350v190h254v-190h-254z" />
<glyph unicode="&#x308;" d="M135 1350v190h254v-190h-254zM524 1350v190h254v-190h-254z" />
<glyph unicode="&#xa9;" d="M20 -205v533h697v-287h-185v102h-327v-163h799v-185h-984zM20 389v553h185v-184h799v-185h-799v-184h-185zM20 1004v430h185v-246h307v205h184v-205h308v-184h-984z" />
<glyph unicode="&#xaa;" d="M20 -205v533h697v-287h-185v102h-327v-163h799v-185h-984zM20 389v553h185v-184h799v-185h-799v-184h-185zM20 1004v430h185v-246h307v205h184v-205h308v-184h-984z" />
<glyph unicode="&#xab;" horiz-adv-x="839" d="M45 690l184 354h271l-191 -354l191 -354h-271zM344 690l184 354h271l-191 -354l191 -354h-271z" />
<glyph unicode="&#xac;" d="M20 -205v533h697v-287h-185v102h-327v-163h799v-185h-984zM20 389v553h185v-184h799v-185h-799v-184h-185zM20 1004v430h185v-246h307v205h184v-205h308v-184h-984z" />
<glyph unicode="&#xad;" horiz-adv-x="512" d="M41 571v267h430v-267h-430z" />
<glyph unicode="&#xae;" d="M20 -205v533h697v-287h-185v102h-327v-163h799v-185h-984zM20 389v553h185v-184h799v-185h-799v-184h-185zM20 1004v430h185v-246h307v205h184v-205h308v-184h-984z" />
<glyph unicode="&#xaf;" d="M203 1350v192h559v-192h-559z" />
<glyph unicode="&#x304;" d="M203 1350v192h559v-192h-559z" />
<glyph unicode="&#x2c9;" d="M203 1350v192h559v-192h-559z" />
<glyph unicode="&#xb0;" d="M20 -205v533h697v-287h-185v102h-327v-163h799v-185h-984zM20 389v553h185v-184h799v-185h-799v-184h-185zM20 1004v430h185v-246h307v205h184v-205h308v-184h-984z" />
<glyph unicode="&#xb1;" d="M20 -205v533h697v-287h-185v102h-327v-163h799v-185h-984zM20 389v553h185v-184h799v-185h-799v-184h-185zM20 1004v430h185v-246h307v205h184v-205h308v-184h-984z" />
<glyph unicode="&#xb2;" d="M20 -205v533h697v-287h-185v102h-327v-163h799v-185h-984zM20 389v553h185v-184h799v-185h-799v-184h-185zM20 1004v430h185v-246h307v205h184v-205h308v-184h-984z" />
<glyph unicode="&#xb3;" d="M20 -205v533h697v-287h-185v102h-327v-163h799v-185h-984zM20 389v553h185v-184h799v-185h-799v-184h-185zM20 1004v430h185v-246h307v205h184v-205h308v-184h-984z" />
<glyph unicode="&#xb4;" d="M242 1350l143 190h295l-141 -190h-297z" />
<glyph unicode="&#x301;" d="M242 1350l143 190h295l-141 -190h-297z" />
<glyph unicode="&#x2ca;" d="M242 1350l143 190h295l-141 -190h-297z" />
<glyph unicode="&#xb5;" d="M20 -205v533h697v-287h-185v102h-327v-163h799v-185h-984zM20 389v553h185v-184h799v-185h-799v-184h-185zM20 1004v430h185v-246h307v205h184v-205h308v-184h-984z" />
<glyph unicode="&#xb6;" horiz-adv-x="1206" d="M109 885q0 211 139 353t383 142h403v-1286q0 -225 -110.5 -344t-331.5 -119q-150 0 -254.5 62.5t-214.5 220.5l196 186q102 -215 281 -215q86 0 133 55.5t47 155.5v293h-149q-240 0 -381 143.5t-141 352.5z" />
<glyph unicode="&#xb7;" horiz-adv-x="512" d="M127 571v263h254v-263h-254z" />
<glyph unicode="&#x2219;" horiz-adv-x="512" d="M127 571v263h254v-263h-254z" />
<glyph unicode="&#xb8;" d="M242 -182l143 190h295l-141 -190h-297z" />
<glyph unicode="&#x327;" d="M242 -182l143 190h295l-141 -190h-297z" />
<glyph unicode="&#xb9;" d="M20 -205v533h697v-287h-185v102h-327v-163h799v-185h-984zM20 389v553h185v-184h799v-185h-799v-184h-185zM20 1004v430h185v-246h307v205h184v-205h308v-184h-984z" />
<glyph unicode="&#xba;" d="M20 -205v533h697v-287h-185v102h-327v-163h799v-185h-984zM20 389v553h185v-184h799v-185h-799v-184h-185zM20 1004v430h185v-246h307v205h184v-205h308v-184h-984z" />
<glyph unicode="&#xbb;" horiz-adv-x="839" d="M59 336l191 354l-191 354h271l184 -354l-184 -354h-271zM365 336l190 354l-190 354h270l184 -354l-184 -354h-270z" />
<glyph unicode="&#xbc;" d="M20 -205v533h697v-287h-185v102h-327v-163h799v-185h-984zM20 389v553h185v-184h799v-185h-799v-184h-185zM20 1004v430h185v-246h307v205h184v-205h308v-184h-984z" />
<glyph unicode="&#xbd;" d="M20 -205v533h697v-287h-185v102h-327v-163h799v-185h-984zM20 389v553h185v-184h799v-185h-799v-184h-185zM20 1004v430h185v-246h307v205h184v-205h308v-184h-984z" />
<glyph unicode="&#xbe;" d="M20 -205v533h697v-287h-185v102h-327v-163h799v-185h-984zM20 389v553h185v-184h799v-185h-799v-184h-185zM20 1004v430h185v-246h307v205h184v-205h308v-184h-984z" />
<glyph unicode="&#xbf;" horiz-adv-x="899" d="M68 352q0 145 76.5 246.5t209.5 192.5v301h254v-433q-164 -106 -229.5 -168.5t-65.5 -132.5q0 -131 150 -131q113 0 221 135l166 -178q-94 -106 -188.5 -158.5t-208.5 -52.5q-160 0 -272.5 96.5t-112.5 282.5zM354 1118v262h254v-262h-254z" />
<glyph unicode="&#xc0;" horiz-adv-x="1382" d="M29 0l512 1380h301l512 -1380h-277l-125 338h-522l-125 -338h-276zM424 1540h295l100 -133h-297zM524 598h332l-164 442z" />
<glyph unicode="&#xc1;" horiz-adv-x="1382" d="M29 0l512 1380h301l512 -1380h-277l-125 338h-522l-125 -338h-276zM524 598h332l-164 442zM555 1407l100 133h295l-98 -133h-297z" />
<glyph unicode="&#xc2;" horiz-adv-x="1382" d="M29 0l512 1380h301l512 -1380h-277l-125 338h-522l-125 -338h-276zM414 1350l141 190h268l142 -190h-86l-21 57h-334l-24 -57h-86zM524 598h332l-164 442z" />
<glyph unicode="&#xc3;" horiz-adv-x="1382" d="M29 0l512 1380h301l512 -1380h-277l-125 338h-522l-125 -338h-276zM411 1377q5 46 17 86t49 68t90 28q31 0 102.5 -14.5t86.5 -14.5q30 0 30 37q0 13 -4 30h183q0 -203 -84 -247l-19 57h-338l-43 -113h-69q-3 20 -4 43q1 19 3 40zM524 598h332l-164 442z" />
<glyph unicode="&#xc4;" horiz-adv-x="1382" d="M29 0l512 1380h301l512 -1380h-277l-125 338h-522l-125 -338h-276zM371 1350v198h254v-141h-101l-22 -57h-131zM524 598h332l-164 442zM760 1407v141h254v-198h-133l-25 57h-96z" />
<glyph unicode="&#xc5;" horiz-adv-x="1382" d="M29 0l512 1380h301l512 -1380h-277l-125 338h-522l-125 -338h-276zM512 1407v10q0 78 49 129t133 51t133.5 -52t49.5 -128v-10h-31h-334zM524 598h332l-164 442z" />
<glyph unicode="&#xc6;" horiz-adv-x="1990" d="M29 0l512 1380h1280v-264h-623v-295h561v-266h-561v-293h664v-262h-918v555h-432l-207 -555h-276zM610 821h334v295h-223z" />
<glyph unicode="&#xc7;" horiz-adv-x="1396" d="M102 690q0 188 75 349t225.5 264.5t347.5 103.5q352 0 571 -299l-195 -182q-84 123 -171 175t-201 52q-170 0 -275.5 -133t-105.5 -328q0 -207 113.5 -334t273.5 -127q215 0 366 215l195 -182q-109 -147 -245 -217t-326 -70q-295 0 -471.5 211t-176.5 502zM512 -182 l113 143q39 -10 127 -10t163 10l-106 -143h-297z" />
<glyph unicode="&#xc8;" horiz-adv-x="1282" d="M193 0v1380h919v-264h-666v-237h605v-267h-605v-350h707v-262h-960zM416 1540h295l100 -133h-297z" />
<glyph unicode="&#xc9;" horiz-adv-x="1282" d="M193 0v1380h919v-264h-666v-237h605v-267h-605v-350h707v-262h-960zM545 1407l100 133h295l-98 -133h-297z" />
<glyph unicode="&#xca;" horiz-adv-x="1282" d="M193 0v1380h919v-264h-666v-237h605v-267h-605v-350h707v-262h-960zM428 1407l98 133h269l98 -133h-465z" />
<glyph unicode="&#xcb;" horiz-adv-x="1282" d="M193 0v1380h919v-264h-666v-237h605v-267h-605v-350h707v-262h-960zM356 1407v141h254v-141h-254zM745 1407v141h254v-141h-254z" />
<glyph unicode="&#xcc;" horiz-adv-x="636" d="M88 1540h229l101 -133h-232zM193 0v1380h253v-1380h-253z" />
<glyph unicode="&#xcd;" horiz-adv-x="636" d="M193 0v1380h253v-1380h-253zM193 1407l100 133h256l-98 -133h-258z" />
<glyph unicode="&#xce;" horiz-adv-x="636" d="M80 1350l141 190h193l149 -190h-90v57h-307v-57h-86zM193 0v1380h253v-1380h-253z" />
<glyph unicode="&#xcf;" horiz-adv-x="636" d="M76 1350v198h233v-141h-143v-57h-90zM193 0v1380h253v-1380h-253zM336 1407v141h233v-198h-96v57h-137z" />
<glyph unicode="&#xd0;" horiz-adv-x="1519" d="M20 614v267h173v499h512q346 0 529 -195.5t183 -492.5q0 -301 -186.5 -496.5t-525.5 -195.5h-512v614h-173zM446 266h248q219 0 336 118t117 306q0 193 -122 308.5t-331 115.5h-248v-233h312v-267h-312v-348z" />
<glyph unicode="&#xd1;" horiz-adv-x="1597" d="M193 0v1380h331l627 -987v987h254v-1380h-332l-627 975v-975h-253zM549 1407q27 152 153 152q31 0 104 -14.5t89 -14.5q27 0 27 35q0 14 -4 32h182q0 -53 -4 -86.5t-17.5 -75.5t-47.5 -63.5t-87 -21.5q-29 0 -89 6t-93 6q-35 0 -36 -42q0 -11 3 -26h-115z" />
<glyph unicode="&#xd2;" horiz-adv-x="1536" d="M109 692q0 293 186 504t481 211q293 0 479.5 -212t186.5 -507q0 -293 -186.5 -504t-479.5 -211t-480 212t-187 507zM379 692q0 -195 107.5 -330t289.5 -135q184 0 289.5 133.5t105.5 328t-106.5 329.5t-288.5 135t-289.5 -134t-107.5 -327zM532 1540h295l93 -127 q-49 8 -158 8l-135 -8z" />
<glyph unicode="&#xd3;" horiz-adv-x="1536" d="M109 692q0 293 186 504t481 211q293 0 479.5 -212t186.5 -507q0 -293 -186.5 -504t-479.5 -211t-480 212t-187 507zM379 692q0 -195 107.5 -330t289.5 -135q184 0 289.5 133.5t105.5 328t-106.5 329.5t-288.5 135t-289.5 -134t-107.5 -327zM647 1417l94 123h295l-92 -129 q-51 10 -156 10q-88 0 -141 -4z" />
<glyph unicode="&#xd4;" horiz-adv-x="1536" d="M109 692q0 293 186 504t481 211q293 0 479.5 -212t186.5 -507q0 -293 -186.5 -504t-479.5 -211t-480 212t-187 507zM379 692q0 -195 107.5 -330t289.5 -135q184 0 289.5 133.5t105.5 328t-106.5 329.5t-288.5 135t-289.5 -134t-107.5 -327zM553 1399l104 141h269 l110 -154q-133 35 -239 35q-138 1 -244 -22z" />
<glyph unicode="&#xd5;" horiz-adv-x="1536" d="M109 692q0 293 186 504t481 211q293 0 479.5 -212t186.5 -507q0 -293 -186.5 -504t-479.5 -211t-480 212t-187 507zM379 692q0 -195 107.5 -330t289.5 -135q184 0 289.5 133.5t105.5 328t-106.5 329.5t-288.5 135t-289.5 -134t-107.5 -327zM496 1376q4 53 15 89t46 65 t94 29q37 0 102.5 -14.5t88.5 -14.5q27 0 26 35q0 14 -4 32h185q0 -131 -35 -202q-113 25 -252 24q-145 0 -266 -43z" />
<glyph unicode="&#xd6;" horiz-adv-x="1536" d="M109 692q0 293 186 504t481 211q293 0 479.5 -212t186.5 -507q0 -293 -186.5 -504t-479.5 -211t-480 212t-187 507zM379 692q0 -195 107.5 -330t289.5 -135q184 0 289.5 133.5t105.5 328t-106.5 329.5t-288.5 135t-289.5 -134t-107.5 -327zM438 1343v205h254v-118 q-41 0 -130 -29t-124 -58zM827 1430v118h254v-188q-31 23 -118 46.5t-136 23.5z" />
<glyph unicode="&#xd7;" d="M164 203l313 313l-313 315l78 80l315 -315l315 315l78 -80l-313 -315l313 -313l-80 -78l-313 311l-313 -311z" />
<glyph unicode="&#xd8;" horiz-adv-x="1536" d="M72 -31l188 258q-152 195 -151 465q0 293 186 504t481 211q164 0 289 -66l47 66h324l-166 -227q172 -201 172 -492q0 -293 -186.5 -504t-479.5 -211q-182 0 -325 84l-64 -88h-315zM379 692q0 -125 47 -231l485 667q-61 25 -135 25q-182 0 -289.5 -134t-107.5 -327z M604 266q78 -39 172 -39q184 0 289.5 133.5t105.5 327.5q0 158 -63 268z" />
<glyph unicode="&#xd9;" horiz-adv-x="1595" d="M193 508v872h253v-874q0 -137 97.5 -208t253.5 -71q162 0 257 70t95 209v874h254v-872q0 -256 -166 -395.5t-440 -139.5q-268 0 -436 140.5t-168 394.5zM467 1540h295l143 -190h-297z" />
<glyph unicode="&#xda;" horiz-adv-x="1595" d="M193 508v872h253v-874q0 -137 97.5 -208t253.5 -71q162 0 257 70t95 209v874h254v-872q0 -256 -166 -395.5t-440 -139.5q-268 0 -436 140.5t-168 394.5zM621 1350l143 190h295l-141 -190h-297z" />
<glyph unicode="&#xdb;" horiz-adv-x="1595" d="M193 508v872h253v-874q0 -137 97.5 -208t253.5 -71q162 0 257 70t95 209v874h254v-872q0 -256 -166 -395.5t-440 -139.5q-268 0 -436 140.5t-168 394.5zM481 1350l142 190h268l141 -190h-551z" />
<glyph unicode="&#xdc;" horiz-adv-x="1595" d="M193 508v872h253v-874q0 -137 97.5 -208t253.5 -71q162 0 257 70t95 209v874h254v-872q0 -256 -166 -395.5t-440 -139.5q-268 0 -436 140.5t-168 394.5zM473 1350v198h254v-198h-254zM868 1350v198h254v-198h-254z" />
<glyph unicode="&#xdd;" horiz-adv-x="1314" d="M-2 1380h324l340 -487l329 487h328l-535 -751v-629h-254v631zM371 1540h295l143 -190h-297z" />
<glyph unicode="&#xde;" horiz-adv-x="1312" d="M193 0v1380h253v-110h234q233 0 377.5 -130t144.5 -333q0 -207 -140 -339t-382 -132h-234v-336h-253zM446 602h228q131 0 196.5 53.5t65.5 147.5q0 88 -68.5 144.5t-191.5 56.5h-230v-402z" />
<glyph unicode="&#xdf;" horiz-adv-x="2650" d="M107 233l190 183q121 -188 395 -189q115 0 193 39t78 117q0 61 -57.5 102t-142.5 59.5t-185.5 50.5t-185.5 71t-142 127t-57 213q0 168 132 284.5t373 116.5q346 0 531 -262l-189 -184q-111 193 -338 192q-113 0 -176 -37t-63 -102q0 -53 42 -89t110.5 -55.5t150.5 -38 t164 -49t150.5 -74.5t110.5 -126t42 -195q0 -188 -156.5 -301t-388.5 -113q-188 0 -330 58.5t-251 201.5zM1411 233l191 183q121 -188 395 -189q115 0 192.5 39t77.5 117q0 61 -57.5 102t-142.5 59.5t-185 50.5t-185 71t-142.5 127t-57.5 213q0 168 132 284.5t374 116.5 q346 0 530 -262l-188 -184q-111 193 -338 192q-113 0 -176.5 -37t-63.5 -102q0 -53 42 -89t111 -55.5t150.5 -38t163.5 -49t151 -74.5t110.5 -126t41.5 -195q0 -188 -156.5 -301t-387.5 -113q-188 0 -330.5 58.5t-251.5 201.5z" />
<glyph unicode="&#xe0;" horiz-adv-x="1382" d="M29 0l512 1380h301l512 -1380h-277l-125 338h-522l-125 -338h-276zM424 1540h295l100 -133h-297zM524 598h332l-164 442z" />
<glyph unicode="&#xe1;" horiz-adv-x="1382" d="M29 0l512 1380h301l512 -1380h-277l-125 338h-522l-125 -338h-276zM524 598h332l-164 442zM555 1407l100 133h295l-98 -133h-297z" />
<glyph unicode="&#xe2;" horiz-adv-x="1382" d="M29 0l512 1380h301l512 -1380h-277l-125 338h-522l-125 -338h-276zM414 1350l141 190h268l142 -190h-86l-21 57h-334l-24 -57h-86zM524 598h332l-164 442z" />
<glyph unicode="&#xe3;" horiz-adv-x="1382" d="M29 0l512 1380h301l512 -1380h-277l-125 338h-522l-125 -338h-276zM411 1377q5 46 17 86t49 68t90 28q31 0 102.5 -14.5t86.5 -14.5q30 0 30 37q0 13 -4 30h183q0 -203 -84 -247l-19 57h-338l-43 -113h-69q-3 20 -4 43q1 19 3 40zM524 598h332l-164 442z" />
<glyph unicode="&#xe4;" horiz-adv-x="1382" d="M29 0l512 1380h301l512 -1380h-277l-125 338h-522l-125 -338h-276zM371 1350v198h254v-141h-101l-22 -57h-131zM524 598h332l-164 442zM760 1407v141h254v-198h-133l-25 57h-96z" />
<glyph unicode="&#xe5;" horiz-adv-x="1382" d="M29 0l512 1380h301l512 -1380h-277l-125 338h-522l-125 -338h-276zM512 1407v10q0 78 49 129t133 51t133.5 -52t49.5 -128v-10h-31h-334zM524 598h332l-164 442z" />
<glyph unicode="&#xe6;" horiz-adv-x="1990" d="M29 0l512 1380h1280v-264h-623v-295h561v-266h-561v-293h664v-262h-918v555h-432l-207 -555h-276zM610 821h334v295h-223z" />
<glyph unicode="&#xe7;" horiz-adv-x="1396" d="M102 690q0 188 75 349t225.5 264.5t347.5 103.5q352 0 571 -299l-195 -182q-84 123 -171 175t-201 52q-170 0 -275.5 -133t-105.5 -328q0 -207 113.5 -334t273.5 -127q215 0 366 215l195 -182q-109 -147 -245 -217t-326 -70q-295 0 -471.5 211t-176.5 502zM512 -182 l113 143q39 -10 127 -10t163 10l-106 -143h-297z" />
<glyph unicode="&#xe8;" horiz-adv-x="1282" d="M193 0v1380h919v-264h-666v-237h605v-267h-605v-350h707v-262h-960zM416 1540h295l100 -133h-297z" />
<glyph unicode="&#xe9;" horiz-adv-x="1282" d="M193 0v1380h919v-264h-666v-237h605v-267h-605v-350h707v-262h-960zM545 1407l100 133h295l-98 -133h-297z" />
<glyph unicode="&#xea;" horiz-adv-x="1282" d="M193 0v1380h919v-264h-666v-237h605v-267h-605v-350h707v-262h-960zM428 1407l98 133h269l98 -133h-465z" />
<glyph unicode="&#xeb;" horiz-adv-x="1282" d="M193 0v1380h919v-264h-666v-237h605v-267h-605v-350h707v-262h-960zM356 1407v141h254v-141h-254zM745 1407v141h254v-141h-254z" />
<glyph unicode="&#xec;" horiz-adv-x="636" d="M88 1540h229l101 -133h-232zM193 0v1380h253v-1380h-253z" />
<glyph unicode="&#xed;" horiz-adv-x="636" d="M193 0v1380h253v-1380h-253zM193 1407l100 133h256l-98 -133h-258z" />
<glyph unicode="&#xee;" horiz-adv-x="636" d="M80 1350l141 190h193l149 -190h-90v57h-307v-57h-86zM193 0v1380h253v-1380h-253z" />
<glyph unicode="&#xef;" horiz-adv-x="636" d="M76 1350v198h233v-141h-143v-57h-90zM193 0v1380h253v-1380h-253zM336 1407v141h233v-198h-96v57h-137z" />
<glyph unicode="&#xf0;" horiz-adv-x="1519" d="M20 614v267h173v499h512q346 0 529 -195.5t183 -492.5q0 -301 -186.5 -496.5t-525.5 -195.5h-512v614h-173zM446 266h248q219 0 336 118t117 306q0 193 -122 308.5t-331 115.5h-248v-233h312v-267h-312v-348z" />
<glyph unicode="&#xf1;" horiz-adv-x="1597" d="M193 0v1380h331l627 -987v987h254v-1380h-332l-627 975v-975h-253zM549 1407q27 152 153 152q31 0 104 -14.5t89 -14.5q27 0 27 35q0 14 -4 32h182q0 -53 -4 -86.5t-17.5 -75.5t-47.5 -63.5t-87 -21.5q-29 0 -89 6t-93 6q-35 0 -36 -42q0 -11 3 -26h-115z" />
<glyph unicode="&#xf2;" horiz-adv-x="1536" d="M109 692q0 293 186 504t481 211q293 0 479.5 -212t186.5 -507q0 -293 -186.5 -504t-479.5 -211t-480 212t-187 507zM379 692q0 -195 107.5 -330t289.5 -135q184 0 289.5 133.5t105.5 328t-106.5 329.5t-288.5 135t-289.5 -134t-107.5 -327zM532 1540h295l93 -127 q-49 8 -158 8l-135 -8z" />
<glyph unicode="&#xf3;" horiz-adv-x="1536" d="M109 692q0 293 186 504t481 211q293 0 479.5 -212t186.5 -507q0 -293 -186.5 -504t-479.5 -211t-480 212t-187 507zM379 692q0 -195 107.5 -330t289.5 -135q184 0 289.5 133.5t105.5 328t-106.5 329.5t-288.5 135t-289.5 -134t-107.5 -327zM647 1417l94 123h295l-92 -129 q-51 10 -156 10q-88 0 -141 -4z" />
<glyph unicode="&#xf4;" horiz-adv-x="1536" d="M109 692q0 293 186 504t481 211q293 0 479.5 -212t186.5 -507q0 -293 -186.5 -504t-479.5 -211t-480 212t-187 507zM379 692q0 -195 107.5 -330t289.5 -135q184 0 289.5 133.5t105.5 328t-106.5 329.5t-288.5 135t-289.5 -134t-107.5 -327zM553 1399l104 141h269 l110 -154q-133 35 -239 35q-138 1 -244 -22z" />
<glyph unicode="&#xf5;" horiz-adv-x="1536" d="M109 692q0 293 186 504t481 211q293 0 479.5 -212t186.5 -507q0 -293 -186.5 -504t-479.5 -211t-480 212t-187 507zM379 692q0 -195 107.5 -330t289.5 -135q184 0 289.5 133.5t105.5 328t-106.5 329.5t-288.5 135t-289.5 -134t-107.5 -327zM496 1376q4 53 15 89t46 65 t94 29q37 0 102.5 -14.5t88.5 -14.5q27 0 26 35q0 14 -4 32h185q0 -131 -35 -202q-113 25 -252 24q-145 0 -266 -43z" />
<glyph unicode="&#xf6;" horiz-adv-x="1536" d="M109 692q0 293 186 504t481 211q293 0 479.5 -212t186.5 -507q0 -293 -186.5 -504t-479.5 -211t-480 212t-187 507zM379 692q0 -195 107.5 -330t289.5 -135q184 0 289.5 133.5t105.5 328t-106.5 329.5t-288.5 135t-289.5 -134t-107.5 -327zM438 1343v205h254v-118 q-41 0 -130 -29t-124 -58zM827 1430v118h254v-188q-31 23 -118 46.5t-136 23.5z" />
<glyph unicode="&#xf7;" d="M86 461v112h942v-112h-942zM457 209q0 43 27.5 71.5t70.5 28.5t71.5 -28.5t28.5 -71.5t-28.5 -70.5t-71.5 -27.5t-70.5 27.5t-27.5 70.5zM457 823q0 43 27.5 72t70.5 29t71.5 -29t28.5 -72t-28.5 -70.5t-71.5 -27.5t-70.5 27.5t-27.5 70.5z" />
<glyph unicode="&#xf8;" horiz-adv-x="1536" d="M72 -31l188 258q-152 195 -151 465q0 293 186 504t481 211q164 0 289 -66l47 66h324l-166 -227q172 -201 172 -492q0 -293 -186.5 -504t-479.5 -211q-182 0 -325 84l-64 -88h-315zM379 692q0 -125 47 -231l485 667q-61 25 -135 25q-182 0 -289.5 -134t-107.5 -327z M604 266q78 -39 172 -39q184 0 289.5 133.5t105.5 327.5q0 158 -63 268z" />
<glyph unicode="&#xf9;" horiz-adv-x="1595" d="M193 508v872h253v-874q0 -137 97.5 -208t253.5 -71q162 0 257 70t95 209v874h254v-872q0 -256 -166 -395.5t-440 -139.5q-268 0 -436 140.5t-168 394.5zM467 1540h295l143 -190h-297z" />
<glyph unicode="&#xfa;" horiz-adv-x="1595" d="M193 508v872h253v-874q0 -137 97.5 -208t253.5 -71q162 0 257 70t95 209v874h254v-872q0 -256 -166 -395.5t-440 -139.5q-268 0 -436 140.5t-168 394.5zM621 1350l143 190h295l-141 -190h-297z" />
<glyph unicode="&#xfb;" horiz-adv-x="1595" d="M193 508v872h253v-874q0 -137 97.5 -208t253.5 -71q162 0 257 70t95 209v874h254v-872q0 -256 -166 -395.5t-440 -139.5q-268 0 -436 140.5t-168 394.5zM481 1350l142 190h268l141 -190h-551z" />
<glyph unicode="&#xfc;" horiz-adv-x="1595" d="M193 508v872h253v-874q0 -137 97.5 -208t253.5 -71q162 0 257 70t95 209v874h254v-872q0 -256 -166 -395.5t-440 -139.5q-268 0 -436 140.5t-168 394.5zM473 1350v198h254v-198h-254zM868 1350v198h254v-198h-254z" />
<glyph unicode="&#xfd;" horiz-adv-x="1314" d="M-2 1380h324l340 -487l329 487h328l-535 -751v-629h-254v631zM371 1540h295l143 -190h-297z" />
<glyph unicode="&#xfe;" horiz-adv-x="1312" d="M193 0v1380h253v-110h234q233 0 377.5 -130t144.5 -333q0 -207 -140 -339t-382 -132h-234v-336h-253zM446 602h228q131 0 196.5 53.5t65.5 147.5q0 88 -68.5 144.5t-191.5 56.5h-230v-402z" />
<glyph unicode="&#xff;" horiz-adv-x="1314" d="M-2 1380h324l340 -487l329 487h328l-535 -751v-629h-254v631zM328 1417v131h254v-198h-207zM717 1350v198h254v-147l-37 -51h-217z" />
<glyph unicode="&#x152;" horiz-adv-x="2123" d="M111 692q0 297 183 492.5t529 195.5h1131v-264h-674v-237h612v-267h-612v-350h715v-262h-1172q-340 0 -526 195.5t-186 496.5zM381 690q0 -188 116.5 -306t336.5 -118h192v848h-192q-209 0 -331 -115.5t-122 -308.5z" />
<glyph unicode="&#x153;" horiz-adv-x="2123" d="M111 692q0 297 183 492.5t529 195.5h1131v-264h-674v-237h612v-267h-612v-350h715v-262h-1172q-340 0 -526 195.5t-186 496.5zM381 690q0 -188 116.5 -306t336.5 -118h192v848h-192q-209 0 -331 -115.5t-122 -308.5z" />
<glyph unicode="&#x178;" horiz-adv-x="1314" d="M-2 1380h324l340 -487l329 487h328l-535 -751v-629h-254v631zM328 1417v131h254v-198h-207zM717 1350v198h254v-147l-37 -51h-217z" />
<glyph unicode="&#x2c6;" d="M145 1350l142 190h268l141 -190h-551z" />
<glyph unicode="&#x302;" d="M145 1350l142 190h268l141 -190h-551z" />
<glyph unicode="&#x2dc;" horiz-adv-x="798" d="M67 1377q5 46 17 86t49 68t90 28q31 0 101.5 -14.5t87.5 -14.5q30 0 29 39q0 12 -3 28h183q0 -53 -4.5 -86.5t-17.5 -75.5t-47 -63.5t-87 -21.5q-29 0 -89.5 6t-92.5 6q-35 0 -36 -42q0 -11 3 -26h-182q-3 20 -4 43q1 19 3 40z" />
<glyph unicode="&#x303;" horiz-adv-x="798" d="M67 1377q5 46 17 86t49 68t90 28q31 0 101.5 -14.5t87.5 -14.5q30 0 29 39q0 12 -3 28h183q0 -53 -4.5 -86.5t-17.5 -75.5t-47 -63.5t-87 -21.5q-29 0 -89.5 6t-92.5 6q-35 0 -36 -42q0 -11 3 -26h-182q-3 20 -4 43q1 19 3 40z" />
<glyph unicode="&#x2000;" horiz-adv-x="800" />
<glyph unicode="&#x2001;" horiz-adv-x="1601" />
<glyph unicode="&#x2002;" horiz-adv-x="800" />
<glyph unicode="&#x2003;" horiz-adv-x="1601" />
<glyph unicode="&#x2004;" horiz-adv-x="532" />
<glyph unicode="&#x2005;" horiz-adv-x="399" />
<glyph unicode="&#x2006;" horiz-adv-x="266" />
<glyph unicode="&#x2007;" horiz-adv-x="266" />
<glyph unicode="&#x2008;" horiz-adv-x="198" />
<glyph unicode="&#x2009;" horiz-adv-x="319" />
<glyph unicode="&#x200a;" horiz-adv-x="88" />
<glyph unicode="&#x2010;" horiz-adv-x="512" d="M41 571v267h430v-267h-430z" />
<glyph unicode="&#x2011;" horiz-adv-x="512" d="M41 571v267h430v-267h-430z" />
<glyph unicode="&#x2012;" horiz-adv-x="512" d="M41 571v267h430v-267h-430z" />
<glyph unicode="&#x2013;" d="M41 571v267h942v-267h-942z" />
<glyph unicode="&#x2014;" horiz-adv-x="2048" d="M41 571v267h1966v-267h-1966z" />
<glyph unicode="&#x2018;" horiz-adv-x="512" d="M129 840v252l90 288h164v-540h-254z" />
<glyph unicode="&#x2019;" horiz-adv-x="512" d="M129 840v540h254v-252l-90 -288h-164z" />
<glyph unicode="&#x201a;" horiz-adv-x="512" d="M129 262h254v-252l-90 -289h-164v541z" />
<glyph unicode="&#x201c;" horiz-adv-x="839" d="M98 840v252l90 288h164v-540h-254zM487 840v252l91 288h163v-540h-254z" />
<glyph unicode="&#x201d;" horiz-adv-x="839" d="M98 840v540h254v-252l-90 -288h-164zM487 840v540h254v-252l-90 -288h-164z" />
<glyph unicode="&#x201e;" horiz-adv-x="839" d="M98 262h254v-252l-90 -289h-164v541zM487 262h254v-252l-90 -289h-164v541z" />
<glyph unicode="&#x2022;" horiz-adv-x="700" d="M115 461v483h473v-483h-473z" />
<glyph unicode="&#x2026;" horiz-adv-x="2048" d="M223 0v262h254v-262h-254zM899 0v262h254v-262h-254zM1573 0v262h254v-262h-254z" />
<glyph unicode="&#x202f;" horiz-adv-x="319" />
<glyph unicode="&#x2039;" horiz-adv-x="512" d="M0 690l184 354h271l-191 -354l191 -354h-271z" />
<glyph unicode="&#x203a;" horiz-adv-x="512" d="M57 336l191 354l-191 354h271l184 -354l-184 -354h-271z" />
<glyph unicode="&#x205f;" horiz-adv-x="399" />
<glyph unicode="&#x20ac;" horiz-adv-x="1251" d="M68 582v266h168q23 262 137 410.5t327 148.5q221 0 400 -215l-185 -172q-111 133 -213 133t-154 -74.5t-65 -230.5h324v-266h-328q27 -358 223 -359q102 0 216 146l184 -174q-92 -115 -184.5 -167.5t-217.5 -52.5q-428 0 -467 607h-165z" />
<glyph unicode="&#x2122;" d="M20 -205v533h697v-287h-185v102h-327v-163h799v-185h-984zM20 389v553h185v-184h799v-185h-799v-184h-185zM20 1004v430h185v-246h307v205h184v-205h308v-184h-984z" />
<glyph unicode="&#xe000;" horiz-adv-x="1380" d="M0 1380h1380v-1380h-1380v1380z" />
<glyph unicode="&#xfb01;" horiz-adv-x="1888" d="M193 0v1380h956v-262h-703v-352h641v-264h-641v-502h-253zM1444 0v1380h254v-1380h-254z" />
<glyph unicode="&#xfb02;" horiz-adv-x="2492" d="M193 0v1380h956v-262h-703v-352h641v-264h-641v-502h-253zM1444 0v1380h254v-1118h692v-262h-946z" />
<glyph unicode="&#xfb03;" horiz-adv-x="3139" d="M193 0v1380h956v-262h-703v-352h641v-264h-641v-502h-253zM1444 0v1380h956v-262h-702v-352h641v-264h-641v-502h-254zM2695 0v1380h254v-1380h-254z" />
<glyph unicode="&#xfb04;" horiz-adv-x="3743" d="M193 0v1380h956v-262h-703v-352h641v-264h-641v-502h-253zM1444 0v1380h956v-262h-702v-352h641v-264h-641v-502h-254zM2695 0v1380h254v-1118h692v-262h-946z" />
</font>
</defs>
</svg>
